<svg width="267" height="165" viewBox="0 0 267 165" fill="none" xmlns="http://www.w3.org/2000/svg">
<path fill-rule="evenodd" clip-rule="evenodd" d="M39.5931 51.44V116H58.3131V51.44H39.5931ZM40.5531 39.44C42.7131 41.44 45.5131 42.44 48.9531 42.44C52.4731 42.44 55.2731 41.44 57.3531 39.44C58.212 38.6129 58.9001 37.7036 59.4175 36.7121L51.44 32.1063L59.6608 27.36C59.1237 26.2663 58.3544 25.293 57.3531 24.44C55.1931 22.52 52.3931 21.56 48.9531 21.56C45.5131 21.56 42.7131 22.56 40.5531 24.56C38.3931 26.56 37.3131 29.04 37.3131 32C37.3131 34.96 38.3931 37.44 40.5531 39.44Z" fill="#4839B8"/>
<path d="M99.6378 116.768C93.7498 116.768 88.5658 115.616 84.0858 113.312C79.6698 111.008 76.2458 107.872 73.8138 103.904C71.3818 99.872 70.1658 95.296 70.1658 90.176C70.1658 84.992 71.3498 80.416 73.7178 76.448C76.1498 72.416 79.4458 69.28 83.6058 67.04C87.7658 64.736 92.4698 63.584 97.7178 63.584C102.774 63.584 107.318 64.672 111.35 66.848C115.446 68.96 118.678 72.032 121.046 76.064C123.414 80.032 124.598 84.8 124.598 90.368C124.598 90.944 124.566 91.616 124.502 92.384C124.438 93.088 124.374 93.76 124.31 94.4H82.3578V85.664H116.438L110.678 88.256C110.678 85.568 110.134 83.232 109.046 81.248C107.958 79.264 106.454 77.728 104.534 76.64C102.614 75.488 100.374 74.912 97.8138 74.912C95.2538 74.912 92.9818 75.488 90.9978 76.64C89.0778 77.728 87.5738 79.296 86.4858 81.344C85.3978 83.328 84.8538 85.696 84.8538 88.448V90.752C84.8538 93.568 85.4618 96.064 86.6778 98.24C87.9578 100.352 89.7178 101.984 91.9578 103.136C94.2618 104.224 96.9498 104.768 100.022 104.768C102.774 104.768 105.174 104.352 107.222 103.52C109.334 102.688 111.254 101.44 112.982 99.776L120.95 108.416C118.582 111.104 115.606 113.184 112.022 114.656C108.438 116.064 104.31 116.768 99.6378 116.768ZM134.568 116V64.352H148.872V78.944L146.856 74.72C148.392 71.072 150.856 68.32 154.248 66.464C157.64 64.544 161.768 63.584 166.632 63.584V77.408C165.992 77.344 165.416 77.312 164.904 77.312C164.392 77.248 163.848 77.216 163.272 77.216C159.176 77.216 155.848 78.4 153.288 80.768C150.792 83.072 149.544 86.688 149.544 91.616V116H134.568ZM197.704 116.768C193.416 116.768 189.576 115.936 186.184 114.272C182.856 112.608 180.264 110.08 178.408 106.688C176.552 103.232 175.624 98.848 175.624 93.536V64.352H190.6V91.328C190.6 95.616 191.496 98.784 193.288 100.832C195.144 102.816 197.736 103.808 201.064 103.808C203.368 103.808 205.416 103.328 207.208 102.368C209 101.344 210.408 99.808 211.432 97.76C212.456 95.648 212.968 93.024 212.968 89.888V64.352H227.944V116H213.736V101.792L216.328 105.92C214.6 109.504 212.04 112.224 208.648 114.08C205.32 115.872 201.672 116.768 197.704 116.768Z" fill="#4DADFB"/>
<path d="M130.49 24H83.51C83.5045 24 83.5 24.0045 83.5 24.01V30.49C83.5 30.4955 83.4954 30.5 83.4899 30.5H70.0477C70.0369 30.5 70.0337 30.515 70.0436 30.5194L83.494 36.4973C83.4976 36.4989 83.5 36.5026 83.5 36.5066V41.9899C83.5 41.9954 83.5045 42 83.51 42H130.49C130.496 42 130.5 41.9955 130.5 41.99V24.01C130.5 24.0045 130.496 24 130.49 24Z" stroke="#4839B8" stroke-width="5"/>
</svg>
