<svg width="128" height="128" viewBox="0 0 128 128" fill="none" xmlns="http://www.w3.org/2000/svg">
<rect width="128" height="128" rx="20" fill="#4839B8"/>
<rect width="96" height="96" transform="translate(16 16)" fill="#4839B8"/>
<path fill-rule="evenodd" clip-rule="evenodd" d="M19.1869 46.44V111H37.9069V46.44H19.1869ZM20.1469 34.44C22.3069 36.44 25.1069 37.44 28.5469 37.44C32.0669 37.44 34.8669 36.44 36.9469 34.44C37.7298 33.6861 38.3708 32.8639 38.8699 31.9733L30.44 27.1063L39.1189 22.0955C38.5908 21.1088 37.8667 20.2236 36.9469 19.44C34.7869 17.52 31.9869 16.56 28.5469 16.56C25.1069 16.56 22.3069 17.56 20.1469 19.56C17.9869 21.56 16.9069 24.04 16.9069 27C16.9069 29.96 17.9869 32.44 20.1469 34.44Z" fill="white"/>
<path d="M109.49 19H62.51C62.5045 19 62.5 19.0045 62.5 19.01V25.49C62.5 25.4955 62.4954 25.5 62.4899 25.5H49.0477C49.0369 25.5 49.0337 25.515 49.0436 25.5194L62.494 31.4973C62.4976 31.4989 62.5 31.5026 62.5 31.5066V36.9899C62.5 36.9954 62.5045 37 62.51 37H109.49C109.496 37 109.5 36.9955 109.5 36.99V19.01C109.5 19.0045 109.496 19 109.49 19Z" stroke="white" stroke-width="5"/>
</svg>
